<svg width="150" height="53" viewBox="0 0 127 72" fill="none" xmlns="http://www.w3.org/2000/svg">
<path d="M63.8471 13.204V17.495H44.3721L44.3431 17.467L44.3151 17.495H6.1964C6.178 17.495 6.1603 17.503 6.1473 17.516C6.1343 17.529 6.127 17.546 6.127 17.565V36.52H0V36.936H6.127V55.653C6.127 55.672 6.1343 55.689 6.1473 55.703C6.1603 55.716 6.178 55.723 6.1964 55.723H25.0334V64.263H25.45V55.723H44.1351V55.793H44.2451L44.3421 55.89L44.4431 55.793H44.5521V55.723H63.8471V58.769H64.2631V55.723H83.6401V55.793H83.7491L83.8491 55.89L83.9461 55.793H84.0571V55.723H102.731V59.878H103.147V55.723H121.996C122.015 55.723 122.032 55.716 122.045 55.702C122.059 55.689 122.066 55.672 122.066 55.653V36.936H127V36.52H122.066V17.565C122.066 17.546 122.059 17.529 122.045 17.516C122.032 17.503 122.015 17.495 121.996 17.495H103.147V17.482H102.731V17.495H83.8781L83.8501 17.467L83.8211 17.495H64.2641V13.204H63.8471ZM6.3631 17.634H25.0331V36.343L6.3631 17.634ZM25.4501 17.634H44.1351V17.675L25.4501 36.331V17.634ZM44.5521 17.634H63.8471V36.34L44.5521 17.669V17.634ZM64.2641 17.634H83.6411V17.67L64.2641 36.42V17.634ZM84.0571 17.634H102.731V36.319L84.0571 17.674V17.634ZM103.147 17.634H121.829L103.147 36.355V17.634ZM6.2651 17.733L25.0121 36.52H6.2651V17.733ZM121.925 17.733V36.52H103.178L121.925 17.733ZM44.5501 17.863L63.8301 36.52H44.5501V17.863ZM83.6381 17.863V36.52H64.3581L83.6381 17.863ZM44.1331 17.871V36.519H25.4561L44.1331 17.871ZM84.0551 17.871L102.729 36.516V36.519H84.0551V17.871ZM6.2641 36.936H24.8421L6.2641 55.486V36.936ZM25.6231 36.936H44.1331V55.485L25.6231 36.936ZM44.5501 36.936H63.7281L44.5501 55.494V36.936ZM64.4611 36.936H83.6391V55.494L64.4611 36.936ZM84.0561 36.936H102.566L84.0561 55.485V36.936ZM103.146 36.936H103.15L121.826 55.584H103.145L103.146 36.936ZM103.347 36.936H121.925V55.486L103.347 36.936ZM64.2621 36.937L83.5321 55.584H64.2621V36.937ZM25.0321 36.943V55.583H6.3631L25.0321 36.943ZM25.4487 36.957L44.0371 55.583H25.4487V36.957ZM102.73 36.969V55.584H84.1541L102.73 36.969ZM63.8461 37.016V55.583H44.6581L63.8461 37.016Z" fill="#CECECE"/>
<path d="M64.056 23.077C63.695 23.077 63.334 23.214 63.059 23.489C62.53 24.019 62.512 24.868 63.004 25.42L29.1768 44.648L29.2129 44.709C31.3699 48.352 34.004 51.693 37.268 54.633L37.32 54.68L37.366 54.627L63.112 25.53C63.665 26.03 64.52 26.016 65.053 25.483C65.603 24.933 65.603 24.04 65.053 23.49C64.778 23.215 64.417 23.077 64.056 23.077ZM64.056 23.215C64.381 23.215 64.706 23.339 64.954 23.587C65.451 24.084 65.451 24.887 64.954 25.384C64.457 25.881 63.654 25.881 63.158 25.384C62.661 24.887 62.661 24.084 63.158 23.587C63.406 23.339 63.731 23.215 64.056 23.215ZM112.395 23.641V23.78H113.945V54.691H112.395V54.83H115.634V54.691H114.084V23.78H115.634V23.641H112.395ZM18.724 24.154L18.6545 24.157H18.6515C18.628 24.158 18.6045 24.16 18.581 24.161L18.5156 24.165V28.279L18.5924 28.271C18.6129 28.269 18.6338 28.267 18.6545 28.267C19.0117 28.267 19.3001 28.555 19.3001 28.913C19.3001 29.27 19.012 29.558 18.6548 29.558C18.6338 29.558 18.6127 29.557 18.5918 29.555L18.5156 29.547V33.663L18.5821 33.666C18.6056 33.667 18.6291 33.667 18.6526 33.668H18.6545C21.28 33.668 23.4099 31.538 23.4099 28.913C23.41 26.311 21.3167 24.202 18.724 24.164V24.154ZM18.6556 24.296C21.2055 24.297 23.271 26.363 23.271 28.913C23.2711 31.463 21.2053 33.529 18.6551 33.529C18.655 33.529 18.6552 33.529 18.6551 33.529L18.6546 29.697C19.087 29.697 19.439 29.345 19.439 28.913C19.439 28.48 19.087 28.128 18.6546 28.128L18.6556 24.296C18.656 24.296 18.6552 24.296 18.6556 24.296ZM78.636 24.488V24.491C77.254 24.528 76.143 25.659 76.143 27.05C76.143 28.441 77.254 29.571 78.636 29.608V43.204C78.634 43.204 78.632 43.204 78.63 43.204C77.215 43.204 76.068 44.352 76.068 45.766C76.068 47.181 77.215 48.329 78.63 48.329C80.044 48.329 81.192 47.181 81.192 45.766C81.192 44.401 80.121 43.287 78.775 43.211V29.608C80.156 29.571 81.267 28.441 81.267 27.05C81.267 25.659 80.156 24.528 78.775 24.491V24.488H78.636ZM78.636 24.63V29.47C77.329 29.432 76.282 28.366 76.282 27.05C76.282 25.734 77.329 24.667 78.636 24.63ZM78.775 24.63C80.081 24.667 81.128 25.734 81.128 27.05C81.128 28.366 80.081 29.433 78.775 29.47V24.63ZM62.759 25.72L37.311 54.48C34.101 51.578 31.5026 48.286 29.3703 44.697L62.759 25.72ZM31.6725 26.573V29.812H31.8113V28.262H38.376V29.812H38.515V26.573H38.376V28.123H31.8113V26.573H31.6725ZM56.567 39.278V39.417H58.117V49.486H56.567V49.625H59.805V49.486H58.256V39.417H59.805V39.278H56.567ZM78.63 43.343C78.632 43.343 78.634 43.343 78.636 43.343V48.189C78.634 48.189 78.632 48.189 78.63 48.189C77.29 48.189 76.206 47.105 76.206 45.766C76.206 44.427 77.29 43.343 78.63 43.343ZM78.774 43.35C80.046 43.425 81.053 44.475 81.053 45.766C81.053 47.056 80.046 48.107 78.774 48.182V43.35ZM92.017 43.785V47.024H92.156V45.474H104.179V47.024H104.318V43.785H104.179V45.335H92.156V43.785H92.017Z" fill="#6C6C6C"/>
<path d="M80.5672 16.697C80.4672 16.696 80.3692 16.697 80.2702 16.698C78.7552 16.722 75.5082 16.716 72.6012 18.032C69.6932 19.348 67.1372 22.076 67.1372 27.28C67.1372 29.48 67.8712 31.381 69.0232 33.01H45.8122V22.499H61.0502V17.148H39.6852V22.499H39.6872V33.01H39.6852V38.361H39.6872V50.817L36.1072 50.795L31.1535 50.818L23.3985 38.77C25.2162 38.02 26.9951 36.942 28.3643 35.431C29.8535 33.788 30.8507 31.641 30.8507 28.984V28.22C30.8507 24.333 29.3682 21.544 26.9506 19.766C24.533 17.988 21.2259 17.202 17.55 17.119H5.75V22.53H5.7801V35.238H5.75V40.289H5.7801V56.143H11.9057V40.273L18.0661 40.256L26.5236 54.015L26.5355 54.031C27.2517 54.979 28.7403 57.085 31.146 58.602L31.3497 58.73L36.2112 56.166L40.1052 56.143H61.0492V50.582H45.8122V38.36H75.9412C75.9522 38.365 75.9602 38.369 75.9722 38.375C77.8382 39.228 80.1042 40 81.8682 41.113C83.6312 42.225 84.8642 43.602 84.8642 45.788C84.8642 48.142 83.8032 49.374 82.3062 50.122C80.8092 50.87 78.8522 51.055 77.2422 51.055H77.2392C74.1522 51.074 70.5212 49.762 67.4202 48.727L66.8722 48.544V54.427L67.1152 54.538C70.1592 55.926 74.6672 56.467 77.2502 56.369C79.1032 56.368 82.4882 56.005 85.4752 54.51C88.4672 53.013 91.0602 50.3 91.0602 45.788C91.0602 42.296 89.7452 39.792 87.9062 38C86.0672 36.208 83.7242 35.109 81.6312 34.294L81.6302 34.293C80.8362 33.987 79.3312 33.386 77.8342 32.571C76.3402 31.758 74.8622 30.718 74.1242 29.627C73.6652 28.881 73.3812 28.051 73.3312 27.266C73.3362 24.886 74.4452 23.603 75.8812 22.846C77.3202 22.088 79.1132 21.927 80.2832 22.011C82.6382 22.181 86.6962 23.51 87.9942 24.064L88.4072 24.241L89.0082 22.476H105.252V56.143H111.378V22.476H122.389V17.172H111.378V17.148H105.252V17.172H84.0852C82.9092 16.888 81.7282 16.707 80.5662 16.696L80.5672 16.697ZM80.5592 17.53C81.6592 17.54 82.8002 17.713 83.9492 17.994L83.9982 18.006H106.087V17.982H110.546V18.006H121.557V21.643H110.546V55.31H106.087V21.643H88.4132L87.9032 23.14C86.2662 22.491 82.7492 21.354 80.3452 21.181C79.0442 21.087 77.1372 21.244 75.4942 22.11C73.8522 22.975 72.4992 24.62 72.4992 27.28V27.292L72.5002 27.305C72.5572 28.259 72.8922 29.219 73.4222 30.075L73.4262 30.082L73.4312 30.089C74.3132 31.397 75.8862 32.459 77.4382 33.304C78.9892 34.148 80.5272 34.761 81.3322 35.071C83.3832 35.87 85.6202 36.935 87.3262 38.598C89.0332 40.261 90.2282 42.502 90.2282 45.789C90.2282 49.988 87.9162 52.358 85.1042 53.766C82.2922 55.173 78.9822 55.537 77.2432 55.537H77.2352H77.2272C74.8702 55.628 70.5472 55.095 67.7062 53.878V49.702C70.6752 50.703 74.1122 51.908 77.2462 51.889C78.9162 51.889 80.9782 51.718 82.6802 50.868C84.3822 50.017 85.6992 48.408 85.6992 45.789C85.6992 43.279 84.2002 41.599 82.3142 40.409C80.4272 39.219 78.1252 38.443 76.3202 37.618C76.2892 37.603 76.2522 37.585 76.2102 37.566L76.1272 37.528H44.9802V51.416H60.2172V55.31H40.1032L36.0032 55.334L31.397 57.764C29.2801 56.367 27.9294 54.494 27.2126 53.544L18.5316 39.422L11.0731 39.442V55.31H6.6139V39.456H6.5838V36.071H6.6139V21.696H6.5838V17.952H17.5318C21.0995 18.033 24.2394 18.806 26.4577 20.437C28.676 22.069 30.0182 24.54 30.0182 28.22V28.984C30.0182 31.435 29.1206 33.357 27.7477 34.872C26.3748 36.386 24.5161 37.482 22.6281 38.196L22.1483 38.378C25.0111 42.795 27.8518 47.227 30.7007 51.653L36.1072 51.628L40.5212 51.654V37.527H40.5192V33.843H40.5212V21.665H40.5192V17.981H60.2182V21.665H44.9802V33.843H70.7062L70.1472 33.162C68.7982 31.519 67.9712 29.584 67.9712 27.28C67.9712 22.341 70.2522 20.01 72.9452 18.791C75.6372 17.572 78.7522 17.556 80.2842 17.531C80.3762 17.53 80.4672 17.529 80.5592 17.53ZM11.0726 21.697V36.072H16.129C18.2552 36.072 20.4905 35.76 22.2419 34.705C23.9933 33.65 25.2155 31.805 25.2155 28.985V28.221C25.2155 25.366 23.6118 23.667 21.8793 22.77C20.1468 21.872 18.3016 21.697 17.5406 21.697H11.0726ZM11.9058 22.53H17.5405C18.1609 22.53 19.9447 22.705 21.496 23.509C23.0473 24.313 24.3822 25.668 24.3822 28.221V28.985C24.3822 31.573 23.3534 33.062 21.8119 33.991C20.2704 34.919 18.171 35.238 16.1289 35.238H11.9057L11.9058 22.53Z" fill="#7F2D2D"/>
<path d="M11.5741 0C11.5373 0 11.5019 0.0147028 11.4759 0.0407028C11.4498 0.0668028 11.4352 0.102101 11.4352 0.138901V2.8833C11.4352 3.0307 11.4444 3.2169 11.4621 3.4442C11.4696 3.5402 11.4771 3.5936 11.4846 3.6726C11.3752 3.5483 11.2762 3.4162 11.1404 3.3116C10.9208 3.1383 10.661 3.0018 10.3638 2.9017C10.0614 2.7999 9.71378 2.7507 9.32118 2.7507C8.38818 2.7507 7.61908 3.0705 7.05068 3.7033C6.47758 4.3369 6.20068 5.2647 6.20068 6.4653C6.20068 7.6532 6.47088 8.5708 7.03088 9.1964C7.03078 9.1963 7.03098 9.1965 7.03088 9.1964C7.59138 9.817 8.36088 10.13 9.30168 10.13C9.70278 10.13 10.0546 10.081 10.3574 9.979C10.3578 9.979 10.3581 9.979 10.3585 9.979C10.6599 9.874 10.9219 9.734 11.1416 9.556C11.2946 9.4346 11.4057 9.2891 11.5224 9.1473L11.6474 9.889C11.6529 9.922 11.6696 9.951 11.6947 9.972C11.7198 9.994 11.7516 10.005 11.7844 10.005H12.6646C12.7014 10.005 12.7367 9.991 12.7628 9.965C12.7888 9.939 12.8035 9.903 12.8035 9.866V0.138901C12.8035 0.102101 12.7888 0.0668028 12.7628 0.0407028C12.7367 0.0147028 12.7014 9.91821e-05 12.6646 9.91821e-05L11.5741 0ZM15.6888 0.312798C15.4729 0.312798 15.2765 0.381502 15.1241 0.516502C14.9644 0.657602 14.8932 0.875296 14.8932 1.133C14.8932 1.387 14.9649 1.6036 15.1222 1.7479C15.1227 1.7484 15.1232 1.749 15.1238 1.7495C15.2762 1.8846 15.4728 1.9535 15.6888 1.9535C15.8968 1.9535 16.0883 1.8837 16.2394 1.7503C16.4056 1.6075 16.4846 1.3884 16.4846 1.133C16.4846 0.874196 16.406 0.654301 16.238 0.514801C16.0871 0.382201 15.8962 0.312798 15.6888 0.312798ZM37.4581 2.6102C36.8651 2.6102 36.3531 2.7042 35.9231 2.8977C35.4941 3.0908 35.1591 3.3773 34.9291 3.7513C34.6991 4.1223 34.5871 4.5689 34.5871 5.0809C34.5871 5.5667 34.7101 6.003 34.9581 6.3766C34.9581 6.3771 34.9581 6.3776 34.9591 6.3782C35.1621 6.6749 35.4301 6.8867 35.7331 7.0465C35.5181 7.1904 35.3331 7.3396 35.2071 7.5025C35.0441 7.7137 34.9611 7.9672 34.9611 8.244C34.9611 8.4887 35.0381 8.7154 35.1881 8.905C35.1881 8.9056 35.1891 8.9061 35.1891 8.9066C35.2681 9.0036 35.3581 9.0867 35.4541 9.1589C35.0711 9.278 34.7331 9.4459 34.4871 9.705C34.4871 9.705 34.4861 9.705 34.4861 9.706C34.1791 10.034 34.0221 10.441 34.0221 10.901C34.0221 11.544 34.3091 12.069 34.8521 12.423C35.3981 12.782 36.1541 12.953 37.1161 12.953C38.3571 12.953 39.3191 12.751 40.0011 12.325C40.6821 11.901 41.0381 11.261 41.0381 10.463C41.0381 9.831 40.8061 9.3211 40.3521 8.9832C39.9031 8.6457 39.2711 8.4866 38.4691 8.4866H37.2011C36.9811 8.4866 36.7961 8.4702 36.6471 8.4396C36.5021 8.406 36.4021 8.3555 36.3381 8.2983C36.2831 8.2462 36.2571 8.1854 36.2571 8.0816C36.2571 7.9312 36.2991 7.8084 36.3901 7.6943C36.4831 7.5824 36.6281 7.4745 36.8141 7.3734C37.0091 7.4016 37.2031 7.4203 37.3921 7.4203C38.2631 7.4203 38.9671 7.2136 39.4831 6.7883C39.4831 6.7882 39.4831 6.7884 39.4831 6.7883C39.9991 6.3595 40.2631 5.766 40.2631 5.0496C40.2631 4.7559 40.2171 4.4841 40.1221 4.2373C40.0601 4.074 39.9701 3.9467 39.8851 3.8131L41.0071 3.6807C41.0411 3.6767 41.0721 3.6605 41.0951 3.6351C41.1171 3.6097 41.1301 3.5769 41.1301 3.5429V2.8741C41.1301 2.8373 41.1151 2.8019 41.0891 2.7759C41.0631 2.7499 41.0281 2.7352 40.9911 2.7352H38.5341C38.4451 2.711 38.3471 2.6904 38.2351 2.6745C38.1121 2.6529 37.9831 2.638 37.8481 2.6294C37.7181 2.6168 37.5881 2.6102 37.4581 2.6102ZM21.5398 2.6351C21.0644 2.6351 20.61 2.6929 20.1774 2.8087C19.7499 2.9232 19.3694 3.0615 19.0358 3.2245C19.0039 3.2402 18.9792 3.2675 18.9667 3.3008C18.9543 3.3341 18.9552 3.3708 18.9691 3.4036L19.3038 4.1912C19.311 4.2084 19.3217 4.2239 19.335 4.2368C19.3484 4.2497 19.3642 4.2599 19.3816 4.2666C19.3989 4.2733 19.4175 4.2764 19.4361 4.2758C19.4547 4.2752 19.4729 4.2709 19.4898 4.2631C19.7903 4.1242 20.1083 4.0035 20.4441 3.901C20.7719 3.801 21.117 3.7507 21.4808 3.7507C21.9442 3.7507 22.2824 3.8621 22.5183 4.0719C22.7425 4.2714 22.8722 4.6413 22.8722 5.2122V5.4975L21.7642 5.5423C20.5865 5.5762 19.6974 5.7753 19.0939 6.1642C18.4917 6.5523 18.1763 7.1344 18.1763 7.8565C18.1763 8.3304 18.2773 8.7344 18.4877 9.0575C18.488 9.058 18.4882 9.0585 18.4885 9.0589C18.7 9.3765 18.991 9.617 19.3505 9.772C19.3503 9.772 19.3507 9.772 19.3505 9.772C19.7118 9.926 20.1214 10.002 20.5747 10.002C20.9999 10.002 21.3624 9.96 21.6645 9.872C21.6648 9.872 21.6652 9.871 21.6656 9.871C21.9687 9.78 22.2384 9.645 22.4714 9.4674C22.4719 9.4671 22.4724 9.4667 22.4728 9.4663C22.6493 9.3286 22.8137 9.1464 22.9773 8.9616L23.1447 9.767C23.1512 9.798 23.1682 9.826 23.193 9.846C23.2177 9.866 23.2487 9.877 23.2806 9.877H24.0753C24.1121 9.877 24.1474 9.863 24.1735 9.837C24.1995 9.811 24.2142 9.775 24.2142 9.738V5.081C24.2142 4.2527 23.9971 3.6204 23.5434 3.2203C23.0919 2.8222 22.4178 2.6351 21.5398 2.6351ZM29.9137 2.7507C29.5773 2.7507 29.2552 2.7965 28.9486 2.8879C28.6419 2.9752 28.3624 3.1066 28.1132 3.2823C27.9319 3.4072 27.7808 3.5628 27.645 3.732L27.5222 2.9921C27.5168 2.9597 27.5 2.9302 27.475 2.9089C27.4499 2.8877 27.4181 2.876 27.3852 2.876H26.505C26.4682 2.876 26.4329 2.8906 26.4068 2.9167C26.3808 2.9427 26.3661 2.978 26.3661 3.0149V9.866C26.3661 9.903 26.3808 9.939 26.4068 9.965C26.4329 9.991 26.4682 10.005 26.505 10.005H27.5954C27.6322 10.005 27.6676 9.991 27.6936 9.965C27.7196 9.939 27.7343 9.903 27.7343 9.866V6.2779C27.7343 5.4794 27.8937 4.888 28.1921 4.4926C28.4832 4.107 28.9907 3.9037 29.7626 3.9037C30.3042 3.9037 30.6786 4.0372 30.9167 4.2859C30.917 4.2862 30.9173 4.2865 30.9176 4.2867C31.1609 4.5367 31.2921 4.9229 31.2921 5.4715V9.866C31.2922 9.903 31.3068 9.939 31.3328 9.965C31.3589 9.991 31.3942 10.005 31.431 10.005H32.5081C32.5451 10.005 32.5801 9.991 32.6061 9.965C32.6321 9.939 32.6471 9.903 32.6471 9.866V5.4029C32.6471 4.5009 32.4204 3.8176 31.945 3.3873C31.474 2.9571 30.789 2.7507 29.9137 2.7507ZM45.4431 2.7637C44.7361 2.7637 44.1181 2.9076 43.5951 3.2001C43.0761 3.4884 42.6741 3.9139 42.3961 4.4652C42.1171 5.0141 41.9801 5.6741 41.9801 6.4406C41.9801 7.0162 42.0611 7.5346 42.2251 7.994C42.2251 7.9944 42.2251 7.9948 42.2251 7.9951C42.3931 8.4523 42.6281 8.8428 42.9311 9.162C42.9311 9.1618 42.9321 9.1622 42.9311 9.162C43.2381 9.4799 43.6021 9.726 44.0181 9.895C44.0181 9.896 44.0191 9.896 44.0191 9.896C44.4391 10.061 44.9001 10.143 45.3971 10.143C45.9281 10.143 46.4071 10.062 46.8331 9.896C47.2621 9.727 47.6311 9.4811 47.9341 9.162C48.2371 8.8424 48.4691 8.451 48.6281 7.993C48.7871 7.534 48.8651 7.0159 48.8651 6.4407C48.8651 5.6776 48.7241 5.0187 48.4361 4.4696C48.1531 3.9194 47.7491 3.4926 47.2321 3.2005C46.7181 2.9082 46.1191 2.7637 45.4431 2.7637ZM15.1307 2.876C15.0939 2.876 15.0585 2.8906 15.0325 2.9167C15.0064 2.9427 14.9918 2.978 14.9918 3.0149V10.973C14.9918 11.369 14.9025 11.611 14.7642 11.73C14.6085 11.864 14.4054 11.934 14.1323 11.934C13.9637 11.934 13.8141 11.922 13.6839 11.899C13.6825 11.899 13.6812 11.898 13.6798 11.898C13.5465 11.878 13.4153 11.849 13.2862 11.809C13.2655 11.803 13.2435 11.801 13.2221 11.805C13.2007 11.809 13.1805 11.817 13.163 11.83C13.1456 11.843 13.1314 11.86 13.1216 11.879C13.1118 11.899 13.1067 11.92 13.1067 11.942V12.786C13.1067 12.815 13.1158 12.843 13.1327 12.866C13.1496 12.89 13.1734 12.908 13.2008 12.917C13.3317 12.962 13.4827 12.998 13.6538 13.029C13.8316 13.064 14.0344 13.081 14.2638 13.081C14.7268 13.081 15.1185 12.999 15.4339 12.826C15.7468 12.655 15.9847 12.401 16.1364 12.076C16.2872 11.758 16.3599 11.38 16.3599 10.948V3.0149C16.3599 2.9781 16.3453 2.9427 16.3192 2.9167C16.2932 2.8907 16.2578 2.876 16.221 2.876H15.1307ZM37.4191 3.6569C37.9171 3.6569 38.2691 3.7784 38.5041 4.0054C38.5041 4.0057 38.5051 4.006 38.5051 4.0063C38.7381 4.2284 38.8621 4.5675 38.8621 5.056C38.8621 5.5099 38.7421 5.8297 38.5111 6.0492C38.2821 6.2677 37.9311 6.3861 37.4321 6.3861C36.9511 6.3861 36.6031 6.269 36.3631 6.0479C36.1231 5.827 36.0011 5.5145 36.0011 5.0747C36.0011 4.5906 36.1251 4.2482 36.3601 4.0171C36.6011 3.7802 36.9441 3.6569 37.4191 3.6569ZM9.47269 3.8912C10.247 3.8912 10.7395 4.1081 11.0112 4.5278C11.0114 4.5281 11.0116 4.5284 11.0117 4.5287C11.2965 4.9623 11.4487 5.6046 11.4487 6.4594V6.6468C11.4487 7.4498 11.291 8.037 10.9982 8.4188C10.7113 8.7928 10.2183 8.9895 9.47279 8.9895C8.83029 8.9895 8.38168 8.782 8.07508 8.3602C7.77048 7.9345 7.60848 7.3139 7.60848 6.4906C7.60848 5.6628 7.77178 5.025 8.08348 4.5683C8.08338 4.5685 8.08358 4.5681 8.08348 4.5683C8.39198 4.1123 8.83669 3.8912 9.47269 3.8912ZM45.4171 3.9165C45.9051 3.9165 46.2891 4.02 46.5801 4.2175C46.8761 4.4177 47.0931 4.6998 47.2381 5.0776C47.2381 5.0775 47.2381 5.0778 47.2381 5.0776C47.3831 5.4536 47.4581 5.9077 47.4581 6.4406C47.4581 6.9778 47.3831 7.4384 47.2371 7.8231C47.0931 8.2049 46.8731 8.491 46.5731 8.6954C46.5731 8.6956 46.5741 8.6952 46.5731 8.6954C46.2821 8.897 45.9021 9.0024 45.4231 9.0024C44.9401 9.0024 44.5591 8.8974 44.2671 8.6959C43.9721 8.4917 43.7541 8.2053 43.6091 7.8231C43.4631 7.4384 43.3881 6.9778 43.3881 6.4406C43.3881 5.6268 43.5571 5.0063 43.8801 4.5669C43.8801 4.5668 43.8801 4.567 43.8801 4.5669C44.2021 4.1345 44.6971 3.9165 45.4171 3.9165ZM22.8587 6.5068V6.9939C22.8587 7.6411 22.6702 8.0974 22.298 8.406C21.9183 8.7208 21.4319 8.8804 20.817 8.8804C20.4265 8.8804 20.1289 8.7925 19.9087 8.6271C19.6962 8.4674 19.5897 8.2312 19.5897 7.8689C19.5897 7.4567 19.7446 7.1646 20.0798 6.9405C20.4066 6.722 21.0201 6.5779 21.9058 6.545C21.9057 6.545 21.9059 6.545 21.9058 6.545L22.8587 6.5068ZM36.8471 9.733H38.0951C38.4561 9.733 38.7591 9.758 39.0001 9.806C39.0011 9.806 39.0021 9.806 39.0021 9.806C39.2361 9.848 39.3981 9.93 39.5041 10.04C39.6041 10.149 39.6631 10.317 39.6631 10.569C39.6631 10.835 39.5801 11.049 39.4051 11.238C39.4041 11.239 39.4041 11.24 39.4031 11.24C39.2331 11.431 38.9651 11.585 38.5881 11.693C38.2171 11.804 37.7351 11.862 37.1491 11.862C36.5551 11.862 36.1101 11.765 35.8141 11.588C35.8141 11.588 35.8141 11.588 35.8131 11.587C35.5191 11.415 35.3901 11.193 35.3901 10.863C35.3901 10.606 35.4471 10.403 35.5561 10.242C35.6701 10.078 35.8311 9.955 36.0511 9.867C36.2721 9.779 36.5361 9.733 36.8471 9.733ZM54.9671 61.095C54.4601 61.095 54.0221 61.183 53.6571 61.366C53.2891 61.55 53.0041 61.842 52.8131 62.228C52.6201 62.613 52.5291 63.101 52.5291 63.691V64.041L51.3581 64.357C51.3281 64.365 51.3021 64.382 51.2841 64.407C51.2651 64.431 51.2551 64.461 51.2551 64.491V64.991C51.2551 65.028 51.2701 65.063 51.2961 65.089C51.3221 65.115 51.3571 65.13 51.3941 65.13H52.5291V71.03C52.5291 71.067 52.5431 71.102 52.5701 71.128C52.5961 71.154 52.6311 71.169 52.6681 71.169H53.7581C53.7951 71.169 53.8301 71.154 53.8561 71.128C53.8821 71.102 53.8971 71.067 53.8971 71.03V65.13H55.5511C55.5881 65.13 55.6231 65.115 55.6491 65.089C55.6751 65.063 55.6901 65.028 55.6901 64.991V64.178C55.6901 64.142 55.6751 64.106 55.6491 64.08C55.6231 64.054 55.5881 64.04 55.5511 64.04H53.8971V63.678C53.8971 63.149 53.9961 62.779 54.1631 62.563C54.3361 62.342 54.5931 62.229 54.9801 62.229C55.1631 62.229 55.3401 62.249 55.5141 62.288C55.5151 62.288 55.5161 62.289 55.5171 62.289C55.7021 62.326 55.8661 62.367 56.0091 62.411C56.0441 62.421 56.0811 62.418 56.1131 62.402C56.1451 62.386 56.1701 62.357 56.1821 62.323L56.4641 61.504C56.4701 61.487 56.4721 61.469 56.4711 61.45C56.4701 61.432 56.4651 61.414 56.4571 61.398C56.4491 61.381 56.4381 61.367 56.4241 61.354C56.4101 61.342 56.3941 61.333 56.3771 61.327C56.1951 61.267 55.9861 61.213 55.7491 61.167C55.5111 61.119 55.2501 61.095 54.9671 61.095ZM116.074 61.164C116.037 61.164 116.001 61.178 115.975 61.205C115.949 61.231 115.935 61.266 115.935 61.303V71.03C115.935 71.067 115.949 71.102 115.975 71.128C116.001 71.154 116.037 71.169 116.074 71.169H117.157C117.194 71.169 117.23 71.154 117.256 71.128C117.282 71.102 117.296 71.067 117.296 71.03V68.611L118.012 67.986L120.463 71.116C120.476 71.132 120.493 71.146 120.512 71.155C120.531 71.164 120.552 71.169 120.573 71.169H121.886C121.912 71.169 121.938 71.161 121.96 71.148C121.982 71.134 122 71.114 122.011 71.09C122.023 71.067 122.027 71.041 122.024 71.015C122.022 70.989 122.011 70.964 121.995 70.944L118.965 67.114L121.775 64.276C121.794 64.257 121.807 64.232 121.812 64.205C121.818 64.178 121.815 64.15 121.804 64.125C121.794 64.1 121.776 64.078 121.753 64.063C121.73 64.048 121.703 64.04 121.676 64.04H120.395C120.377 64.04 120.359 64.043 120.342 64.05C120.325 64.057 120.309 64.068 120.296 64.081L117.906 66.506C117.905 66.507 117.904 66.508 117.904 66.508C117.778 66.641 117.625 66.813 117.445 67.027L117.444 67.028C117.364 67.125 117.324 67.172 117.262 67.247C117.267 67.154 117.27 67.077 117.276 66.974C117.289 66.731 117.296 66.524 117.296 66.354V61.303C117.296 61.266 117.281 61.231 117.255 61.205C117.229 61.179 117.194 61.164 117.157 61.164H116.074ZM86.1571 63.786C85.4921 63.786 84.9041 63.938 84.4031 64.245C83.9071 64.55 83.5191 64.99 83.2471 65.553C82.9781 66.113 82.8451 66.772 82.8451 67.526C82.8451 68.298 82.9911 68.96 83.2891 69.506C83.5861 70.048 84.0061 70.467 84.5421 70.75C85.0811 71.029 85.7091 71.166 86.4191 71.166C86.9121 71.166 87.3411 71.13 87.7071 71.057C88.0761 70.984 88.4471 70.869 88.8181 70.711C88.8431 70.7 88.8651 70.682 88.8801 70.66C88.8951 70.637 88.9031 70.61 88.9031 70.583V69.67C88.9031 69.648 88.8971 69.625 88.8861 69.605C88.8761 69.585 88.8601 69.568 88.8411 69.555C88.8231 69.542 88.8011 69.535 88.7781 69.532C88.7551 69.53 88.7331 69.533 88.7111 69.542C88.3411 69.694 87.9851 69.808 87.6431 69.885C87.3051 69.961 86.9131 70 86.4651 70C85.7521 70 85.2221 69.802 84.8441 69.411C84.4921 69.047 84.2991 68.515 84.2651 67.809H89.0861C89.1231 67.809 89.1581 67.794 89.1841 67.768C89.2101 67.742 89.2251 67.707 89.2251 67.67V67.026C89.2251 66.388 89.1051 65.823 88.8621 65.338C88.6191 64.849 88.2631 64.465 87.8031 64.193C87.3411 63.921 86.7891 63.786 86.1571 63.786ZM104.956 63.786C104.249 63.786 103.631 63.93 103.108 64.223C102.589 64.511 102.187 64.937 101.909 65.488C101.63 66.037 101.493 66.697 101.493 67.464C101.493 68.039 101.574 68.558 101.738 69.017C101.906 69.474 102.141 69.866 102.444 70.185C102.445 70.185 102.445 70.185 102.445 70.186C102.752 70.504 103.115 70.748 103.53 70.918C103.531 70.918 103.532 70.918 103.532 70.918C103.953 71.084 104.413 71.166 104.91 71.166C105.441 71.166 105.92 71.084 106.346 70.919C106.775 70.749 107.144 70.504 107.447 70.185C107.751 69.865 107.982 69.474 108.141 69.016C108.3 68.557 108.379 68.039 108.379 67.464C108.379 66.701 108.237 66.042 107.949 65.493C107.666 64.942 107.263 64.516 106.745 64.224C106.232 63.931 105.632 63.786 104.956 63.786ZM65.8591 63.799C65.3831 63.799 64.9291 63.857 64.4961 63.973C64.0681 64.087 63.6881 64.225 63.3541 64.388C63.3221 64.404 63.2971 64.431 63.2851 64.464C63.2731 64.498 63.2741 64.535 63.2881 64.567L63.6221 65.355C63.6301 65.372 63.6411 65.388 63.6541 65.4C63.6671 65.413 63.6831 65.424 63.7001 65.43C63.7181 65.437 63.7361 65.44 63.7551 65.439C63.7731 65.439 63.7921 65.434 63.8091 65.427C64.1091 65.288 64.4271 65.167 64.7631 65.065C65.0901 64.964 65.4361 64.914 65.7991 64.914C66.2631 64.914 66.6011 65.026 66.8371 65.236C67.0611 65.435 67.1911 65.805 67.1911 66.376V66.661L66.0831 66.706H66.0841C64.9061 66.74 64.0161 66.939 63.4121 67.328C62.8101 67.716 62.4951 68.298 62.4951 69.02C62.4951 69.494 62.5961 69.898 62.8061 70.221C62.8071 70.221 62.8071 70.222 62.8071 70.222C63.0191 70.54 63.3091 70.78 63.6691 70.935C64.0301 71.09 64.4401 71.166 64.8931 71.166C65.3181 71.166 65.6811 71.124 65.9831 71.035C66.2861 70.943 66.5571 70.808 66.7901 70.631L66.7911 70.63C66.9681 70.492 67.1321 70.31 67.2961 70.125L67.4631 70.93C67.4691 70.961 67.4861 70.989 67.5111 71.01C67.5361 71.03 67.5671 71.041 67.5991 71.041H68.3941C68.4301 71.041 68.4661 71.026 68.4921 71C68.5181 70.974 68.5331 70.939 68.5331 70.902V66.244C68.5331 65.416 68.3161 64.784 67.8621 64.384C67.4101 63.986 66.7371 63.799 65.8591 63.799ZM60.6961 63.914C60.3381 63.914 60.0071 63.98 59.7071 64.114C59.4171 64.246 59.1591 64.424 58.9371 64.648C58.7911 64.794 58.6791 64.966 58.5611 65.133L58.4701 64.165C58.4671 64.131 58.4511 64.099 58.4251 64.076C58.4001 64.052 58.3671 64.04 58.3321 64.04H57.4261C57.3891 64.04 57.3541 64.054 57.3281 64.08C57.3011 64.106 57.2871 64.142 57.2871 64.178V71.03C57.2871 71.067 57.3011 71.102 57.3281 71.128C57.3541 71.154 57.3891 71.169 57.4261 71.169H58.5221C58.5591 71.169 58.5951 71.154 58.6211 71.128C58.6471 71.102 58.6611 71.067 58.6611 71.03V67.354C58.6611 67.014 58.7141 66.711 58.8171 66.441C58.9201 66.164 59.0621 65.932 59.2411 65.743C59.2411 65.742 59.2421 65.742 59.2421 65.742C59.4221 65.547 59.6281 65.401 59.8641 65.3C60.1051 65.195 60.3601 65.142 60.6311 65.142C60.7521 65.142 60.8821 65.15 61.0221 65.167C61.1621 65.183 61.2871 65.205 61.3991 65.232C61.4181 65.237 61.4371 65.237 61.4561 65.234C61.4751 65.231 61.4941 65.223 61.5101 65.212C61.5261 65.202 61.5391 65.187 61.5501 65.171C61.5601 65.155 61.5671 65.136 61.5691 65.117L61.7081 64.154C61.7131 64.119 61.7041 64.083 61.6841 64.054C61.6631 64.025 61.6321 64.005 61.5981 63.998C61.4681 63.972 61.3231 63.953 61.1611 63.94C61.0011 63.923 60.8451 63.914 60.6961 63.914ZM73.9681 63.914C73.6491 63.914 73.3461 63.958 73.0611 64.045C72.7751 64.133 72.5151 64.263 72.2831 64.436C72.1181 64.558 71.9801 64.708 71.8551 64.87L71.7341 64.155C71.7291 64.123 71.7121 64.093 71.6871 64.072C71.6621 64.051 71.6301 64.039 71.5971 64.04H70.7171C70.6811 64.04 70.6451 64.054 70.6191 64.08C70.5931 64.106 70.5781 64.142 70.5781 64.178V71.03C70.5781 71.067 70.5931 71.102 70.6191 71.128C70.6451 71.154 70.6811 71.169 70.7171 71.169H71.8071C71.8441 71.169 71.8801 71.154 71.9061 71.128C71.9321 71.102 71.9461 71.067 71.9461 71.03V67.404C71.9461 66.878 72.0091 66.441 72.1291 66.094C72.2521 65.747 72.4421 65.496 72.7041 65.326C72.9641 65.158 73.3191 65.067 73.7781 65.067C74.0981 65.067 74.3511 65.127 74.5431 65.237C74.5441 65.237 74.5451 65.238 74.5461 65.238C74.7431 65.345 74.8851 65.501 74.9841 65.723L74.9851 65.724C75.0881 65.946 75.1431 66.235 75.1431 66.591V71.03C75.1431 71.067 75.1581 71.102 75.1841 71.128C75.2101 71.154 75.2451 71.169 75.2821 71.169H76.3661C76.4021 71.169 76.4381 71.154 76.4641 71.128C76.4901 71.102 76.5051 71.067 76.5051 71.03V67.198C76.5051 66.471 76.6581 65.941 76.9461 65.592C77.2291 65.247 77.6851 65.068 78.3561 65.068C78.8241 65.068 79.1491 65.195 79.3681 65.44C79.3691 65.44 79.3701 65.441 79.3701 65.442C79.5931 65.682 79.7141 66.058 79.7141 66.591V71.03C79.7141 71.067 79.7291 71.102 79.7551 71.128C79.7811 71.154 79.8161 71.169 79.8531 71.169H80.9301C80.9671 71.169 81.0021 71.154 81.0291 71.128C81.0551 71.102 81.0691 71.067 81.0691 71.03V66.541C81.0691 65.649 80.8631 64.976 80.4231 64.548C79.9881 64.12 79.3481 63.914 78.5331 63.914C78.0251 63.914 77.5521 64.016 77.1211 64.221C77.1211 64.221 77.1211 64.222 77.1201 64.222C76.7341 64.402 76.4291 64.684 76.1881 65.035C76.0071 64.688 75.7541 64.404 75.4051 64.224C75.0121 64.015 74.5321 63.914 73.9681 63.914ZM113.32 63.914C112.962 63.914 112.631 63.98 112.331 64.114C112.041 64.246 111.783 64.424 111.561 64.648C111.415 64.794 111.303 64.966 111.185 65.133L111.094 64.165C111.091 64.131 111.075 64.099 111.049 64.076C111.024 64.052 110.991 64.04 110.956 64.04H110.049C110.013 64.04 109.977 64.054 109.951 64.08C109.925 64.106 109.911 64.142 109.911 64.178V71.03C109.911 71.067 109.925 71.102 109.951 71.128C109.977 71.154 110.013 71.169 110.049 71.169H111.146C111.183 71.169 111.219 71.154 111.245 71.128C111.271 71.102 111.285 71.067 111.285 71.03V67.354C111.285 67.014 111.338 66.711 111.441 66.441C111.545 66.164 111.686 65.932 111.865 65.743C111.865 65.742 111.865 65.742 111.866 65.742C112.046 65.547 112.252 65.401 112.488 65.3C112.729 65.195 112.984 65.142 113.255 65.142C113.376 65.142 113.506 65.15 113.646 65.167C113.785 65.183 113.911 65.205 114.023 65.232C114.041 65.237 114.061 65.237 114.08 65.234C114.099 65.231 114.117 65.223 114.134 65.212C114.15 65.202 114.163 65.187 114.174 65.171C114.184 65.155 114.191 65.136 114.193 65.117L114.331 64.154C114.337 64.119 114.328 64.083 114.308 64.054C114.287 64.025 114.256 64.005 114.222 63.998C114.092 63.972 113.947 63.953 113.785 63.94C113.624 63.923 113.469 63.914 113.32 63.914ZM90.3741 64.04C90.3531 64.04 90.3321 64.045 90.3121 64.054C90.2931 64.064 90.2761 64.078 90.2631 64.095C90.2501 64.112 90.2421 64.132 90.2381 64.154C90.2341 64.175 90.2351 64.196 90.2411 64.217L92.2251 71.069C92.2331 71.098 92.2501 71.123 92.2741 71.141C92.2991 71.159 92.3281 71.169 92.3581 71.169H93.5861C93.6151 71.169 93.6431 71.16 93.6671 71.143C93.6911 71.126 93.7081 71.102 93.7181 71.075L95.0571 67.108C95.1191 66.934 95.1751 66.762 95.2241 66.593C95.2721 66.422 95.3161 66.259 95.3551 66.104L95.3561 66.101C95.3861 65.997 95.4081 65.906 95.4321 65.813C95.4561 65.906 95.4811 65.996 95.5071 66.101C95.5081 66.102 95.5081 66.104 95.5091 66.106C95.5531 66.256 95.5981 66.414 95.6471 66.58C95.6471 66.582 95.6481 66.583 95.6481 66.584C95.7011 66.747 95.7551 66.914 95.8121 67.086L97.0931 71.073C97.1021 71.101 97.1201 71.125 97.1431 71.142C97.1671 71.16 97.1961 71.169 97.2251 71.169H98.4921C98.5231 71.169 98.5521 71.159 98.5761 71.141C98.6001 71.123 98.6181 71.098 98.6261 71.069L100.616 64.217C100.622 64.197 100.623 64.175 100.619 64.154C100.615 64.133 100.607 64.113 100.594 64.095C100.581 64.078 100.564 64.064 100.545 64.054C100.525 64.045 100.504 64.04 100.483 64.04H99.3731C99.3421 64.04 99.3131 64.05 99.2891 64.068C99.2641 64.087 99.2471 64.112 99.2391 64.142L98.1881 67.924C98.1181 68.182 98.0501 68.438 97.9841 68.688C97.9841 68.689 97.9831 68.69 97.9831 68.69C97.9241 68.933 97.8711 69.154 97.8241 69.358C97.7711 69.154 97.7131 68.945 97.6471 68.729V68.727C97.5851 68.51 97.5211 68.3 97.4551 68.099L96.1751 64.136C96.1661 64.108 96.1481 64.084 96.1241 64.066C96.1001 64.049 96.0721 64.04 96.0431 64.04H94.8671C94.8381 64.04 94.8091 64.049 94.7861 64.066C94.7621 64.083 94.7441 64.107 94.7351 64.135L93.4091 68.104C93.3601 68.252 93.3111 68.41 93.2621 68.578C93.2141 68.742 93.1681 68.908 93.1241 69.076C93.1231 69.077 93.1231 69.077 93.1231 69.078C93.0961 69.191 93.0711 69.294 93.0461 69.399C93.0431 69.385 93.0421 69.376 93.0391 69.362C92.9941 69.143 92.9401 68.913 92.8741 68.671L92.8731 68.668C92.8121 68.422 92.7461 68.174 92.6761 67.924L91.6381 64.142C91.6301 64.113 91.6131 64.087 91.5891 64.068C91.5641 64.05 91.5351 64.04 91.5041 64.04H90.3741ZM86.1441 64.914C86.5361 64.914 86.8431 64.997 87.0781 65.154C87.0791 65.154 87.0791 65.154 87.0791 65.155C87.3181 65.31 87.4941 65.526 87.6111 65.816C87.6121 65.816 87.6121 65.817 87.6121 65.818C87.7191 66.07 87.7741 66.368 87.7911 66.7H84.3081C84.3881 66.155 84.5611 65.72 84.8521 65.415C85.1711 65.081 85.5901 64.914 86.1441 64.914ZM104.93 64.939C105.418 64.939 105.802 65.043 106.093 65.241C106.388 65.441 106.606 65.723 106.75 66.101C106.896 66.477 106.971 66.931 106.971 67.464C106.971 68.001 106.896 68.461 106.75 68.846C106.605 69.228 106.386 69.513 106.086 69.718C105.794 69.92 105.415 70.025 104.936 70.025C104.453 70.025 104.072 69.92 103.78 69.718C103.485 69.514 103.267 69.228 103.122 68.846C102.976 68.461 102.901 68.001 102.901 67.464C102.901 66.65 103.07 66.029 103.392 65.59C103.393 65.59 103.393 65.589 103.393 65.589C103.715 65.157 104.21 64.939 104.93 64.939ZM67.1791 67.671V68.157C67.1791 68.805 66.9901 69.261 66.6181 69.57C66.2381 69.884 65.7521 70.044 65.1371 70.044C64.7461 70.044 64.4491 69.956 64.2291 69.791C64.0161 69.631 63.9101 69.395 63.9101 69.033C63.9101 68.62 64.0641 68.328 64.4001 68.104C64.7261 67.886 65.3401 67.742 66.2261 67.709L67.1791 67.671Z" fill="#212121"/>
</svg>
