<svg width="260" height="260" viewBox="0 0 260 260" fill="none" xmlns="http://www.w3.org/2000/svg">
<g filter="url(#filter0_d_605_5472)">
<rect x="40" y="36" width="180" height="180" rx="32" fill="white"/>
<rect x="40.5" y="36.5" width="179" height="179" rx="31.5" stroke="white"/>
</g>
<path d="M129.847 103.204V107.495H110.372L110.343 107.467L110.315 107.495H72.1964C72.178 107.495 72.1603 107.503 72.1473 107.516C72.1343 107.529 72.127 107.546 72.127 107.565V126.52H66V126.936H72.127V145.653C72.127 145.672 72.1343 145.689 72.1473 145.703C72.1603 145.716 72.178 145.723 72.1964 145.723H91.0334V154.263H91.45V145.723H110.135V145.793H110.245L110.342 145.89L110.443 145.793H110.552V145.723H129.847V148.769H130.263V145.723H149.64V145.793H149.749L149.849 145.89L149.946 145.793H150.057V145.723H168.731V149.878H169.147V145.723H187.996C188.015 145.723 188.032 145.716 188.045 145.702C188.059 145.689 188.066 145.672 188.066 145.653V126.936H193V126.52H188.066V107.565C188.066 107.546 188.059 107.529 188.045 107.516C188.032 107.503 188.015 107.495 187.996 107.495H169.147V107.482H168.731V107.495H149.878L149.85 107.467L149.821 107.495H130.264V103.204H129.847ZM72.3631 107.634H91.0331V126.343L72.3631 107.634ZM91.4501 107.634H110.135V107.675L91.4501 126.331V107.634ZM110.552 107.634H129.847V126.34L110.552 107.669V107.634ZM130.264 107.634H149.641V107.67L130.264 126.42V107.634ZM150.057 107.634H168.731V126.319L150.057 107.674V107.634ZM169.147 107.634H187.829L169.147 126.355V107.634ZM72.2651 107.733L91.0121 126.52H72.2651V107.733ZM187.925 107.733V126.52H169.178L187.925 107.733ZM110.55 107.863L129.83 126.52H110.55V107.863ZM149.638 107.863V126.52H130.358L149.638 107.863ZM110.133 107.871V126.519H91.4561L110.133 107.871ZM150.055 107.871L168.729 126.516V126.519H150.055V107.871ZM72.2641 126.936H90.8421L72.2641 145.486V126.936ZM91.6231 126.936H110.133V145.485L91.6231 126.936ZM110.55 126.936H129.728L110.55 145.494V126.936ZM130.461 126.936H149.639V145.494L130.461 126.936ZM150.056 126.936H168.566L150.056 145.485V126.936ZM169.146 126.936H169.15L187.826 145.584H169.145L169.146 126.936ZM169.347 126.936H187.925V145.486L169.347 126.936ZM130.262 126.937L149.532 145.584H130.262V126.937ZM91.0321 126.943V145.583H72.3631L91.0321 126.943ZM91.4487 126.957L110.037 145.583H91.4487V126.957ZM168.73 126.969V145.584H150.154L168.73 126.969ZM129.846 127.016V145.583H110.658L129.846 127.016Z" fill="#CECECE"/>
<path d="M130.056 113.077C129.695 113.077 129.334 113.214 129.059 113.489C128.53 114.019 128.512 114.868 129.004 115.42L95.1768 134.648L95.2129 134.709C97.3699 138.352 100.004 141.693 103.268 144.633L103.32 144.68L103.366 144.627L129.112 115.53C129.665 116.03 130.52 116.016 131.053 115.483C131.603 114.933 131.603 114.04 131.053 113.49C130.778 113.215 130.417 113.077 130.056 113.077ZM130.056 113.215C130.381 113.215 130.706 113.339 130.954 113.587C131.451 114.084 131.451 114.887 130.954 115.384C130.457 115.881 129.654 115.881 129.158 115.384C128.661 114.887 128.661 114.084 129.158 113.587C129.406 113.339 129.731 113.215 130.056 113.215ZM178.395 113.641V113.78H179.945V144.691H178.395V144.83H181.634V144.691H180.084V113.78H181.634V113.641H178.395ZM84.724 114.154L84.6545 114.157H84.6515C84.628 114.158 84.6045 114.16 84.581 114.161L84.5156 114.165V118.279L84.5924 118.271C84.6129 118.269 84.6338 118.267 84.6545 118.267C85.0117 118.267 85.3001 118.555 85.3001 118.913C85.3001 119.27 85.012 119.558 84.6548 119.558C84.6338 119.558 84.6127 119.557 84.5918 119.555L84.5156 119.547V123.663L84.5821 123.666C84.6056 123.667 84.6291 123.667 84.6526 123.668H84.6545C87.28 123.668 89.4099 121.538 89.4099 118.913C89.41 116.311 87.3167 114.202 84.724 114.164V114.154ZM84.6556 114.296C87.2055 114.297 89.271 116.363 89.271 118.913C89.2711 121.463 87.2053 123.529 84.6551 123.529C84.6552 123.529 84.655 123.529 84.6551 123.529L84.6546 119.697C85.087 119.697 85.439 119.345 85.439 118.913C85.439 118.48 85.087 118.128 84.6546 118.128L84.6556 114.296C84.6552 114.296 84.656 114.296 84.6556 114.296ZM144.636 114.488V114.491C143.254 114.528 142.143 115.659 142.143 117.05C142.143 118.441 143.254 119.571 144.636 119.608V133.204C144.634 133.204 144.632 133.204 144.63 133.204C143.215 133.204 142.068 134.352 142.068 135.766C142.068 137.181 143.215 138.329 144.63 138.329C146.044 138.329 147.192 137.181 147.192 135.766C147.192 134.401 146.121 133.287 144.775 133.211V119.608C146.156 119.571 147.267 118.441 147.267 117.05C147.267 115.659 146.156 114.528 144.775 114.491V114.488H144.636ZM144.636 114.63V119.47C143.329 119.432 142.282 118.366 142.282 117.05C142.282 115.734 143.329 114.667 144.636 114.63ZM144.775 114.63C146.081 114.667 147.128 115.734 147.128 117.05C147.128 118.366 146.081 119.433 144.775 119.47V114.63ZM128.759 115.72L103.311 144.48C100.101 141.578 97.5026 138.286 95.3703 134.697L128.759 115.72ZM97.6725 116.573V119.812H97.8113V118.262H104.376V119.812H104.515V116.573H104.376V118.123H97.8113V116.573H97.6725ZM122.567 129.278V129.417H124.117V139.486H122.567V139.625H125.805V139.486H124.256V129.417H125.805V129.278H122.567ZM144.63 133.343C144.632 133.343 144.634 133.343 144.636 133.343V138.189C144.634 138.189 144.632 138.189 144.63 138.189C143.29 138.189 142.206 137.105 142.206 135.766C142.206 134.427 143.29 133.343 144.63 133.343ZM144.774 133.35C146.046 133.425 147.053 134.475 147.053 135.766C147.053 137.056 146.046 138.107 144.774 138.182V133.35ZM158.017 133.785V137.024H158.156V135.474H170.179V137.024H170.318V133.785H170.179V135.335H158.156V133.785H158.017Z" fill="#6C6C6C"/>
<path d="M146.567 106.697C146.467 106.696 146.369 106.697 146.27 106.698C144.755 106.722 141.508 106.716 138.601 108.032C135.693 109.348 133.137 112.076 133.137 117.28C133.137 119.48 133.871 121.381 135.023 123.01H111.812V112.499H127.05V107.148H105.685V112.499H105.687V123.01H105.685V128.361H105.687V140.817L102.107 140.795L97.1535 140.818L89.3985 128.77C91.2162 128.02 92.9951 126.942 94.3643 125.431C95.8535 123.788 96.8507 121.641 96.8507 118.984V118.22C96.8507 114.333 95.3682 111.544 92.9506 109.766C90.533 107.988 87.2259 107.202 83.55 107.119H71.75V112.53H71.7801V125.238H71.75V130.289H71.7801V146.143H77.9057V130.273L84.0661 130.256L92.5236 144.015L92.5355 144.031C93.2517 144.979 94.7403 147.085 97.146 148.602L97.3497 148.73L102.211 146.166L106.105 146.143H127.049V140.582H111.812V128.36H141.941C141.952 128.365 141.96 128.369 141.972 128.375C143.838 129.228 146.104 130 147.868 131.113C149.631 132.225 150.864 133.602 150.864 135.788C150.864 138.142 149.803 139.374 148.306 140.122C146.809 140.87 144.852 141.055 143.242 141.055H143.239C140.152 141.074 136.521 139.762 133.42 138.727L132.872 138.544V144.427L133.115 144.538C136.159 145.926 140.667 146.467 143.25 146.369C145.103 146.368 148.488 146.005 151.475 144.51C154.467 143.013 157.06 140.3 157.06 135.788C157.06 132.296 155.745 129.792 153.906 128C152.067 126.208 149.724 125.109 147.631 124.294L147.63 124.293C146.836 123.987 145.331 123.386 143.834 122.571C142.34 121.758 140.862 120.718 140.124 119.627C139.665 118.881 139.381 118.051 139.331 117.266C139.336 114.886 140.445 113.603 141.881 112.846C143.32 112.088 145.113 111.927 146.283 112.011C148.638 112.181 152.696 113.51 153.994 114.064L154.407 114.241L155.008 112.476H171.252V146.143H177.378V112.476H188.389V107.172H177.378V107.148H171.252V107.172H150.085C148.909 106.888 147.728 106.707 146.566 106.696L146.567 106.697ZM146.559 107.53C147.659 107.54 148.8 107.713 149.949 107.994L149.998 108.006H172.087V107.982H176.546V108.006H187.557V111.643H176.546V145.31H172.087V111.643H154.413L153.903 113.14C152.266 112.491 148.749 111.354 146.345 111.181C145.044 111.087 143.137 111.244 141.494 112.11C139.852 112.975 138.499 114.62 138.499 117.28V117.292L138.5 117.305C138.557 118.259 138.892 119.219 139.422 120.075L139.426 120.082L139.431 120.089C140.313 121.397 141.886 122.459 143.438 123.304C144.989 124.148 146.527 124.761 147.332 125.071C149.383 125.87 151.62 126.935 153.326 128.598C155.033 130.261 156.228 132.502 156.228 135.789C156.228 139.988 153.916 142.358 151.104 143.766C148.292 145.173 144.982 145.537 143.243 145.537H143.235H143.227C140.87 145.628 136.547 145.095 133.706 143.878V139.702C136.675 140.703 140.112 141.908 143.246 141.889C144.916 141.889 146.978 141.718 148.68 140.868C150.382 140.017 151.699 138.408 151.699 135.789C151.699 133.279 150.2 131.599 148.314 130.409C146.427 129.219 144.125 128.443 142.32 127.618C142.289 127.603 142.252 127.585 142.21 127.566L142.127 127.528H110.98V141.416H126.217V145.31H106.103L102.003 145.334L97.397 147.764C95.2801 146.367 93.9294 144.494 93.2126 143.544L84.5316 129.422L77.0731 129.442V145.31H72.6139V129.456H72.5838V126.071H72.6139V111.696H72.5838V107.952H83.5318C87.0995 108.033 90.2394 108.806 92.4577 110.437C94.676 112.069 96.0182 114.54 96.0182 118.22V118.984C96.0182 121.435 95.1206 123.357 93.7477 124.872C92.3748 126.386 90.5161 127.482 88.6281 128.196L88.1483 128.378C91.0111 132.795 93.8518 137.227 96.7007 141.653L102.107 141.628L106.521 141.654V127.527H106.519V123.843H106.521V111.665H106.519V107.981H126.218V111.665H110.98V123.843H136.706L136.147 123.162C134.798 121.519 133.971 119.584 133.971 117.28C133.971 112.341 136.252 110.01 138.945 108.791C141.637 107.572 144.752 107.556 146.284 107.531C146.376 107.53 146.467 107.529 146.559 107.53ZM77.0726 111.697V126.072H82.129C84.2552 126.072 86.4905 125.76 88.2419 124.705C89.9933 123.65 91.2155 121.805 91.2155 118.985V118.221C91.2155 115.366 89.6118 113.667 87.8793 112.77C86.1468 111.872 84.3016 111.697 83.5406 111.697H77.0726ZM77.9058 112.53H83.5405C84.1609 112.53 85.9447 112.705 87.496 113.509C89.0473 114.313 90.3822 115.668 90.3822 118.221V118.985C90.3822 121.573 89.3534 123.062 87.8119 123.991C86.2704 124.919 84.171 125.238 82.1289 125.238H77.9057L77.9058 112.53Z" fill="#7F2D2D"/>
<path d="M77.5741 90C77.5373 90 77.5019 90.0147 77.4759 90.0407C77.4498 90.0668 77.4352 90.1021 77.4352 90.1389V92.8833C77.4352 93.0307 77.4444 93.2169 77.4621 93.4442C77.4696 93.5402 77.4771 93.5936 77.4846 93.6726C77.3752 93.5483 77.2762 93.4162 77.1404 93.3116C76.9208 93.1383 76.661 93.0018 76.3638 92.9017C76.0614 92.7999 75.7138 92.7507 75.3212 92.7507C74.3882 92.7507 73.6191 93.0705 73.0507 93.7033C72.4776 94.3369 72.2007 95.2647 72.2007 96.4653C72.2007 97.6532 72.4709 98.5708 73.0309 99.1964C73.031 99.1965 73.0308 99.1963 73.0309 99.1964C73.5914 99.817 74.3609 100.13 75.3017 100.13C75.7028 100.13 76.0546 100.081 76.3574 99.979C76.3578 99.979 76.3581 99.979 76.3585 99.979C76.6599 99.874 76.9219 99.734 77.1416 99.556C77.2946 99.4346 77.4057 99.2891 77.5224 99.1473L77.6474 99.889C77.6529 99.922 77.6696 99.951 77.6947 99.972C77.7198 99.994 77.7516 100.005 77.7844 100.005H78.6646C78.7014 100.005 78.7367 99.991 78.7628 99.965C78.7888 99.939 78.8035 99.903 78.8035 99.866V90.1389C78.8035 90.1021 78.7888 90.0668 78.7628 90.0407C78.7367 90.0147 78.7014 90.0001 78.6646 90.0001L77.5741 90ZM81.6888 90.3128C81.4729 90.3128 81.2765 90.3815 81.1241 90.5165C80.9644 90.6576 80.8932 90.8753 80.8932 91.133C80.8932 91.387 80.9649 91.6036 81.1222 91.7479C81.1227 91.7484 81.1232 91.749 81.1238 91.7495C81.2762 91.8846 81.4728 91.9535 81.6888 91.9535C81.8968 91.9535 82.0883 91.8837 82.2394 91.7503C82.4056 91.6075 82.4846 91.3884 82.4846 91.133C82.4846 90.8742 82.406 90.6543 82.238 90.5148C82.0871 90.3822 81.8962 90.3128 81.6888 90.3128ZM103.458 92.6102C102.865 92.6102 102.353 92.7042 101.923 92.8977C101.494 93.0908 101.159 93.3773 100.929 93.7513C100.699 94.1223 100.587 94.5689 100.587 95.0809C100.587 95.5667 100.71 96.003 100.958 96.3766C100.958 96.3771 100.958 96.3776 100.959 96.3782C101.162 96.6749 101.43 96.8867 101.733 97.0465C101.518 97.1904 101.333 97.3396 101.207 97.5025C101.044 97.7137 100.961 97.9672 100.961 98.244C100.961 98.4887 101.038 98.7154 101.188 98.905C101.188 98.9056 101.189 98.9061 101.189 98.9066C101.268 99.0036 101.358 99.0867 101.454 99.1589C101.071 99.278 100.733 99.4459 100.487 99.705C100.487 99.705 100.486 99.705 100.486 99.706C100.179 100.034 100.022 100.441 100.022 100.901C100.022 101.544 100.309 102.069 100.852 102.423C101.398 102.782 102.154 102.953 103.116 102.953C104.357 102.953 105.319 102.751 106.001 102.325C106.682 101.901 107.038 101.261 107.038 100.463C107.038 99.831 106.806 99.3211 106.352 98.9832C105.903 98.6457 105.271 98.4866 104.469 98.4866H103.201C102.981 98.4866 102.796 98.4702 102.647 98.4396C102.502 98.406 102.402 98.3555 102.338 98.2983C102.283 98.2462 102.257 98.1854 102.257 98.0816C102.257 97.9312 102.299 97.8084 102.39 97.6943C102.483 97.5824 102.628 97.4745 102.814 97.3734C103.009 97.4016 103.203 97.4203 103.392 97.4203C104.263 97.4203 104.967 97.2136 105.483 96.7883C105.483 96.7884 105.483 96.7882 105.483 96.7883C105.999 96.3595 106.263 95.766 106.263 95.0496C106.263 94.7559 106.217 94.4841 106.122 94.2373C106.06 94.074 105.97 93.9467 105.885 93.8131L107.007 93.6807C107.041 93.6767 107.072 93.6605 107.095 93.6351C107.117 93.6097 107.13 93.5769 107.13 93.5429V92.8741C107.13 92.8373 107.115 92.8019 107.089 92.7759C107.063 92.7499 107.028 92.7352 106.991 92.7352H104.534C104.445 92.711 104.347 92.6904 104.235 92.6745C104.112 92.6529 103.983 92.638 103.848 92.6294C103.718 92.6168 103.588 92.6102 103.458 92.6102ZM87.5398 92.6351C87.0644 92.6351 86.61 92.6929 86.1774 92.8087C85.7499 92.9232 85.3694 93.0615 85.0358 93.2245C85.0039 93.2402 84.9792 93.2675 84.9667 93.3008C84.9543 93.3341 84.9552 93.3708 84.9691 93.4036L85.3038 94.1912C85.311 94.2084 85.3217 94.2239 85.335 94.2368C85.3484 94.2497 85.3642 94.2599 85.3816 94.2666C85.3989 94.2733 85.4175 94.2764 85.4361 94.2758C85.4547 94.2752 85.4729 94.2709 85.4898 94.2631C85.7903 94.1242 86.1083 94.0035 86.4441 93.901C86.7719 93.801 87.117 93.7507 87.4808 93.7507C87.9442 93.7507 88.2824 93.8621 88.5183 94.0719C88.7425 94.2714 88.8722 94.6413 88.8722 95.2122V95.4975L87.7642 95.5423C86.5865 95.5762 85.6974 95.7753 85.0939 96.1642C84.4917 96.5523 84.1763 97.1344 84.1763 97.8565C84.1763 98.3304 84.2773 98.7344 84.4877 99.0575C84.488 99.058 84.4882 99.0585 84.4885 99.0589C84.7 99.3765 84.991 99.617 85.3505 99.772C85.3507 99.772 85.3503 99.772 85.3505 99.772C85.7118 99.926 86.1214 100.002 86.5747 100.002C86.9999 100.002 87.3624 99.96 87.6645 99.872C87.6648 99.872 87.6652 99.871 87.6656 99.871C87.9687 99.78 88.2384 99.645 88.4714 99.4674C88.4719 99.4671 88.4724 99.4667 88.4728 99.4663C88.6493 99.3286 88.8137 99.1464 88.9773 98.9616L89.1447 99.767C89.1512 99.798 89.1682 99.826 89.193 99.846C89.2177 99.866 89.2487 99.877 89.2806 99.877H90.0753C90.1121 99.877 90.1474 99.863 90.1735 99.837C90.1995 99.811 90.2142 99.775 90.2142 99.738V95.081C90.2142 94.2527 89.9971 93.6204 89.5434 93.2203C89.0919 92.8222 88.4178 92.6351 87.5398 92.6351ZM95.9137 92.7507C95.5773 92.7507 95.2552 92.7965 94.9486 92.8879C94.6419 92.9752 94.3624 93.1066 94.1132 93.2823C93.9319 93.4072 93.7808 93.5628 93.645 93.732L93.5222 92.9921C93.5168 92.9597 93.5 92.9302 93.475 92.9089C93.4499 92.8877 93.4181 92.876 93.3852 92.876H92.505C92.4682 92.876 92.4329 92.8906 92.4068 92.9167C92.3808 92.9427 92.3661 92.978 92.3661 93.0149V99.866C92.3661 99.903 92.3808 99.939 92.4068 99.965C92.4329 99.991 92.4682 100.005 92.505 100.005H93.5954C93.6322 100.005 93.6676 99.991 93.6936 99.965C93.7196 99.939 93.7343 99.903 93.7343 99.866V96.2779C93.7343 95.4794 93.8937 94.888 94.1921 94.4926C94.4832 94.107 94.9907 93.9037 95.7626 93.9037C96.3042 93.9037 96.6786 94.0372 96.9167 94.2859C96.917 94.2862 96.9173 94.2865 96.9176 94.2867C97.1609 94.5367 97.2921 94.9229 97.2921 95.4715V99.866C97.2922 99.903 97.3068 99.939 97.3328 99.965C97.3589 99.991 97.3942 100.005 97.431 100.005H98.5081C98.5451 100.005 98.5801 99.991 98.6061 99.965C98.6321 99.939 98.6471 99.903 98.6471 99.866V95.4029C98.6471 94.5009 98.4204 93.8176 97.945 93.3873C97.474 92.9571 96.789 92.7507 95.9137 92.7507ZM111.443 92.7637C110.736 92.7637 110.118 92.9076 109.595 93.2001C109.076 93.4884 108.674 93.9139 108.396 94.4652C108.117 95.0141 107.98 95.6741 107.98 96.4406C107.98 97.0162 108.061 97.5346 108.225 97.994C108.225 97.9944 108.225 97.9948 108.225 97.9951C108.393 98.4523 108.628 98.8428 108.931 99.162C108.932 99.1622 108.931 99.1618 108.931 99.162C109.238 99.4799 109.602 99.726 110.018 99.895C110.018 99.896 110.019 99.896 110.019 99.896C110.439 100.061 110.9 100.143 111.397 100.143C111.928 100.143 112.407 100.062 112.833 99.896C113.262 99.727 113.631 99.4811 113.934 99.162C114.237 98.8424 114.469 98.451 114.628 97.993C114.787 97.534 114.865 97.0159 114.865 96.4407C114.865 95.6776 114.724 95.0187 114.436 94.4696C114.153 93.9194 113.749 93.4926 113.232 93.2005C112.718 92.9082 112.119 92.7637 111.443 92.7637ZM81.1307 92.876C81.0939 92.876 81.0585 92.8906 81.0325 92.9167C81.0064 92.9427 80.9918 92.978 80.9918 93.0149V100.973C80.9918 101.369 80.9025 101.611 80.7642 101.73C80.6085 101.864 80.4054 101.934 80.1323 101.934C79.9637 101.934 79.8141 101.922 79.6839 101.899C79.6825 101.899 79.6812 101.898 79.6798 101.898C79.5465 101.878 79.4153 101.849 79.2862 101.809C79.2655 101.803 79.2435 101.801 79.2221 101.805C79.2007 101.809 79.1805 101.817 79.163 101.83C79.1456 101.843 79.1314 101.86 79.1216 101.879C79.1118 101.899 79.1067 101.92 79.1067 101.942V102.786C79.1067 102.815 79.1158 102.843 79.1327 102.866C79.1496 102.89 79.1734 102.908 79.2008 102.917C79.3317 102.962 79.4827 102.998 79.6538 103.029C79.8316 103.064 80.0344 103.081 80.2638 103.081C80.7268 103.081 81.1185 102.999 81.4339 102.826C81.7468 102.655 81.9847 102.401 82.1364 102.076C82.2872 101.758 82.3599 101.38 82.3599 100.948V93.0149C82.3599 92.9781 82.3453 92.9427 82.3192 92.9167C82.2932 92.8907 82.2578 92.876 82.221 92.876H81.1307ZM103.419 93.6569C103.917 93.6569 104.269 93.7784 104.504 94.0054C104.504 94.0057 104.505 94.006 104.505 94.0063C104.738 94.2284 104.862 94.5675 104.862 95.056C104.862 95.5099 104.742 95.8297 104.511 96.0492C104.282 96.2677 103.931 96.3861 103.432 96.3861C102.951 96.3861 102.603 96.269 102.363 96.0479C102.123 95.827 102.001 95.5145 102.001 95.0747C102.001 94.5906 102.125 94.2482 102.36 94.0171C102.601 93.7802 102.944 93.6569 103.419 93.6569ZM75.4727 93.8912C76.247 93.8912 76.7395 94.1081 77.0112 94.5278C77.0114 94.5281 77.0116 94.5284 77.0117 94.5287C77.2965 94.9623 77.4487 95.6046 77.4487 96.4594V96.6468C77.4487 97.4498 77.291 98.037 76.9982 98.4188C76.7113 98.7928 76.2183 98.9895 75.4728 98.9895C74.8303 98.9895 74.3817 98.782 74.0751 98.3602C73.7705 97.9345 73.6085 97.3139 73.6085 96.4906C73.6085 95.6628 73.7718 95.025 74.0835 94.5683C74.0836 94.5681 74.0834 94.5685 74.0835 94.5683C74.392 94.1123 74.8367 93.8912 75.4727 93.8912ZM111.417 93.9165C111.905 93.9165 112.289 94.02 112.58 94.2175C112.876 94.4177 113.093 94.6998 113.238 95.0776C113.238 95.0778 113.238 95.0775 113.238 95.0776C113.383 95.4536 113.458 95.9077 113.458 96.4406C113.458 96.9778 113.383 97.4384 113.237 97.8231C113.093 98.2049 112.873 98.491 112.573 98.6954C112.574 98.6952 112.573 98.6956 112.573 98.6954C112.282 98.897 111.902 99.0024 111.423 99.0024C110.94 99.0024 110.559 98.8974 110.267 98.6959C109.972 98.4917 109.754 98.2053 109.609 97.8231C109.463 97.4384 109.388 96.9778 109.388 96.4406C109.388 95.6268 109.557 95.0063 109.88 94.5669C109.88 94.567 109.88 94.5668 109.88 94.5669C110.202 94.1345 110.697 93.9165 111.417 93.9165ZM88.8587 96.5068V96.9939C88.8587 97.6411 88.6702 98.0974 88.298 98.406C87.9183 98.7208 87.4319 98.8804 86.817 98.8804C86.4265 98.8804 86.1289 98.7925 85.9087 98.6271C85.6962 98.4674 85.5897 98.2312 85.5897 97.8689C85.5897 97.4567 85.7446 97.1646 86.0798 96.9405C86.4066 96.722 87.0201 96.5779 87.9058 96.545C87.9059 96.545 87.9057 96.545 87.9058 96.545L88.8587 96.5068ZM102.847 99.733H104.095C104.456 99.733 104.759 99.758 105 99.806C105.001 99.806 105.002 99.806 105.002 99.806C105.236 99.848 105.398 99.93 105.504 100.04C105.604 100.149 105.663 100.317 105.663 100.569C105.663 100.835 105.58 101.049 105.405 101.238C105.404 101.239 105.404 101.24 105.403 101.24C105.233 101.431 104.965 101.585 104.588 101.693C104.217 101.804 103.735 101.862 103.149 101.862C102.555 101.862 102.11 101.765 101.814 101.588C101.814 101.588 101.814 101.588 101.813 101.587C101.519 101.415 101.39 101.193 101.39 100.863C101.39 100.606 101.447 100.403 101.556 100.242C101.67 100.078 101.831 99.955 102.051 99.867C102.272 99.779 102.536 99.733 102.847 99.733ZM120.967 151.095C120.46 151.095 120.022 151.183 119.657 151.366C119.289 151.55 119.004 151.842 118.813 152.228C118.62 152.613 118.529 153.101 118.529 153.691V154.041L117.358 154.357C117.328 154.365 117.302 154.382 117.284 154.407C117.265 154.431 117.255 154.461 117.255 154.491V154.991C117.255 155.028 117.27 155.063 117.296 155.089C117.322 155.115 117.357 155.13 117.394 155.13H118.529V161.03C118.529 161.067 118.543 161.102 118.57 161.128C118.596 161.154 118.631 161.169 118.668 161.169H119.758C119.795 161.169 119.83 161.154 119.856 161.128C119.882 161.102 119.897 161.067 119.897 161.03V155.13H121.551C121.588 155.13 121.623 155.115 121.649 155.089C121.675 155.063 121.69 155.028 121.69 154.991V154.178C121.69 154.142 121.675 154.106 121.649 154.08C121.623 154.054 121.588 154.04 121.551 154.04H119.897V153.678C119.897 153.149 119.996 152.779 120.163 152.563C120.336 152.342 120.593 152.229 120.98 152.229C121.163 152.229 121.34 152.249 121.514 152.288C121.515 152.288 121.516 152.289 121.517 152.289C121.702 152.326 121.866 152.367 122.009 152.411C122.044 152.421 122.081 152.418 122.113 152.402C122.145 152.386 122.17 152.357 122.182 152.323L122.464 151.504C122.47 151.487 122.472 151.469 122.471 151.45C122.47 151.432 122.465 151.414 122.457 151.398C122.449 151.381 122.438 151.367 122.424 151.354C122.41 151.342 122.394 151.333 122.377 151.327C122.195 151.267 121.986 151.213 121.749 151.167C121.511 151.119 121.25 151.095 120.967 151.095ZM182.074 151.164C182.037 151.164 182.001 151.178 181.975 151.205C181.949 151.231 181.935 151.266 181.935 151.303V161.03C181.935 161.067 181.949 161.102 181.975 161.128C182.001 161.154 182.037 161.169 182.074 161.169H183.157C183.194 161.169 183.23 161.154 183.256 161.128C183.282 161.102 183.296 161.067 183.296 161.03V158.611L184.012 157.986L186.463 161.116C186.476 161.132 186.493 161.146 186.512 161.155C186.531 161.164 186.552 161.169 186.573 161.169H187.886C187.912 161.169 187.938 161.161 187.96 161.148C187.982 161.134 188 161.114 188.011 161.09C188.023 161.067 188.027 161.041 188.024 161.015C188.022 160.989 188.011 160.964 187.995 160.944L184.965 157.114L187.775 154.276C187.794 154.257 187.807 154.232 187.812 154.205C187.818 154.178 187.815 154.15 187.804 154.125C187.794 154.1 187.776 154.078 187.753 154.063C187.73 154.048 187.703 154.04 187.676 154.04H186.395C186.377 154.04 186.359 154.043 186.342 154.05C186.325 154.057 186.309 154.068 186.296 154.081L183.906 156.506C183.905 156.507 183.904 156.508 183.904 156.508C183.778 156.641 183.625 156.813 183.445 157.027L183.444 157.028C183.364 157.125 183.324 157.172 183.262 157.247C183.267 157.154 183.27 157.077 183.276 156.974C183.289 156.731 183.296 156.524 183.296 156.354V151.303C183.296 151.266 183.281 151.231 183.255 151.205C183.229 151.179 183.194 151.164 183.157 151.164H182.074ZM152.157 153.786C151.492 153.786 150.904 153.938 150.403 154.245C149.907 154.55 149.519 154.99 149.247 155.553C148.978 156.113 148.845 156.772 148.845 157.526C148.845 158.298 148.991 158.96 149.289 159.506C149.586 160.048 150.006 160.467 150.542 160.75C151.081 161.029 151.709 161.166 152.419 161.166C152.912 161.166 153.341 161.13 153.707 161.057C154.076 160.984 154.447 160.869 154.818 160.711C154.843 160.7 154.865 160.682 154.88 160.66C154.895 160.637 154.903 160.61 154.903 160.583V159.67C154.903 159.648 154.897 159.625 154.886 159.605C154.876 159.585 154.86 159.568 154.841 159.555C154.823 159.542 154.801 159.535 154.778 159.532C154.755 159.53 154.733 159.533 154.711 159.542C154.341 159.694 153.985 159.808 153.643 159.885C153.305 159.961 152.913 160 152.465 160C151.752 160 151.222 159.802 150.844 159.411C150.492 159.047 150.299 158.515 150.265 157.809H155.086C155.123 157.809 155.158 157.794 155.184 157.768C155.21 157.742 155.225 157.707 155.225 157.67V157.026C155.225 156.388 155.105 155.823 154.862 155.338C154.619 154.849 154.263 154.465 153.803 154.193C153.341 153.921 152.789 153.786 152.157 153.786ZM170.956 153.786C170.249 153.786 169.631 153.93 169.108 154.223C168.589 154.511 168.187 154.937 167.909 155.488C167.63 156.037 167.493 156.697 167.493 157.464C167.493 158.039 167.574 158.558 167.738 159.017C167.906 159.474 168.141 159.866 168.444 160.185C168.445 160.185 168.445 160.185 168.445 160.186C168.752 160.504 169.115 160.748 169.53 160.918C169.531 160.918 169.532 160.918 169.532 160.918C169.953 161.084 170.413 161.166 170.91 161.166C171.441 161.166 171.92 161.084 172.346 160.919C172.775 160.749 173.144 160.504 173.447 160.185C173.751 159.865 173.982 159.474 174.141 159.016C174.3 158.557 174.379 158.039 174.379 157.464C174.379 156.701 174.237 156.042 173.949 155.493C173.666 154.942 173.263 154.516 172.745 154.224C172.232 153.931 171.632 153.786 170.956 153.786ZM131.859 153.799C131.383 153.799 130.929 153.857 130.496 153.973C130.068 154.087 129.688 154.225 129.354 154.388C129.322 154.404 129.297 154.431 129.285 154.464C129.273 154.498 129.274 154.535 129.288 154.567L129.622 155.355C129.63 155.372 129.641 155.388 129.654 155.4C129.667 155.413 129.683 155.424 129.7 155.43C129.718 155.437 129.736 155.44 129.755 155.439C129.773 155.439 129.792 155.434 129.809 155.427C130.109 155.288 130.427 155.167 130.763 155.065C131.09 154.964 131.436 154.914 131.799 154.914C132.263 154.914 132.601 155.026 132.837 155.236C133.061 155.435 133.191 155.805 133.191 156.376V156.661L132.083 156.706H132.084C130.906 156.74 130.016 156.939 129.412 157.328C128.81 157.716 128.495 158.298 128.495 159.02C128.495 159.494 128.596 159.898 128.806 160.221C128.807 160.221 128.807 160.222 128.807 160.222C129.019 160.54 129.309 160.78 129.669 160.935C130.03 161.09 130.44 161.166 130.893 161.166C131.318 161.166 131.681 161.124 131.983 161.035C132.286 160.943 132.557 160.808 132.79 160.631L132.791 160.63C132.968 160.492 133.132 160.31 133.296 160.125L133.463 160.93C133.469 160.961 133.486 160.989 133.511 161.01C133.536 161.03 133.567 161.041 133.599 161.041H134.394C134.43 161.041 134.466 161.026 134.492 161C134.518 160.974 134.533 160.939 134.533 160.902V156.244C134.533 155.416 134.316 154.784 133.862 154.384C133.41 153.986 132.737 153.799 131.859 153.799ZM126.696 153.914C126.338 153.914 126.007 153.98 125.707 154.114C125.417 154.246 125.159 154.424 124.937 154.648C124.791 154.794 124.679 154.966 124.561 155.133L124.47 154.165C124.467 154.131 124.451 154.099 124.425 154.076C124.4 154.052 124.367 154.04 124.332 154.04H123.426C123.389 154.04 123.354 154.054 123.328 154.08C123.301 154.106 123.287 154.142 123.287 154.178V161.03C123.287 161.067 123.301 161.102 123.328 161.128C123.354 161.154 123.389 161.169 123.426 161.169H124.522C124.559 161.169 124.595 161.154 124.621 161.128C124.647 161.102 124.661 161.067 124.661 161.03V157.354C124.661 157.014 124.714 156.711 124.817 156.441C124.92 156.164 125.062 155.932 125.241 155.743C125.241 155.742 125.242 155.742 125.242 155.742C125.422 155.547 125.628 155.401 125.864 155.3C126.105 155.195 126.36 155.142 126.631 155.142C126.752 155.142 126.882 155.15 127.022 155.167C127.162 155.183 127.287 155.205 127.399 155.232C127.418 155.237 127.437 155.237 127.456 155.234C127.475 155.231 127.494 155.223 127.51 155.212C127.526 155.202 127.539 155.187 127.55 155.171C127.56 155.155 127.567 155.136 127.569 155.117L127.708 154.154C127.713 154.119 127.704 154.083 127.684 154.054C127.663 154.025 127.632 154.005 127.598 153.998C127.468 153.972 127.323 153.953 127.161 153.94C127.001 153.923 126.845 153.914 126.696 153.914ZM139.968 153.914C139.649 153.914 139.346 153.958 139.061 154.045C138.775 154.133 138.515 154.263 138.283 154.436C138.118 154.558 137.98 154.708 137.855 154.87L137.734 154.155C137.729 154.123 137.712 154.093 137.687 154.072C137.662 154.051 137.63 154.039 137.597 154.04H136.717C136.681 154.04 136.645 154.054 136.619 154.08C136.593 154.106 136.578 154.142 136.578 154.178V161.03C136.578 161.067 136.593 161.102 136.619 161.128C136.645 161.154 136.681 161.169 136.717 161.169H137.807C137.844 161.169 137.88 161.154 137.906 161.128C137.932 161.102 137.946 161.067 137.946 161.03V157.404C137.946 156.878 138.009 156.441 138.129 156.094C138.252 155.747 138.442 155.496 138.704 155.326C138.964 155.158 139.319 155.067 139.778 155.067C140.098 155.067 140.351 155.127 140.543 155.237C140.544 155.237 140.545 155.238 140.546 155.238C140.743 155.345 140.885 155.501 140.984 155.723L140.985 155.724C141.088 155.946 141.143 156.235 141.143 156.591V161.03C141.143 161.067 141.158 161.102 141.184 161.128C141.21 161.154 141.245 161.169 141.282 161.169H142.366C142.402 161.169 142.438 161.154 142.464 161.128C142.49 161.102 142.505 161.067 142.505 161.03V157.198C142.505 156.471 142.658 155.941 142.946 155.592C143.229 155.247 143.685 155.068 144.356 155.068C144.824 155.068 145.149 155.195 145.368 155.44C145.369 155.44 145.37 155.441 145.37 155.442C145.593 155.682 145.714 156.058 145.714 156.591V161.03C145.714 161.067 145.729 161.102 145.755 161.128C145.781 161.154 145.816 161.169 145.853 161.169H146.93C146.967 161.169 147.002 161.154 147.029 161.128C147.055 161.102 147.069 161.067 147.069 161.03V156.541C147.069 155.649 146.863 154.976 146.423 154.548C145.988 154.12 145.348 153.914 144.533 153.914C144.025 153.914 143.552 154.016 143.121 154.221C143.121 154.221 143.121 154.222 143.12 154.222C142.734 154.402 142.429 154.684 142.188 155.035C142.007 154.688 141.754 154.404 141.405 154.224C141.012 154.015 140.532 153.914 139.968 153.914ZM179.32 153.914C178.962 153.914 178.631 153.98 178.331 154.114C178.041 154.246 177.783 154.424 177.561 154.648C177.415 154.794 177.303 154.966 177.185 155.133L177.094 154.165C177.091 154.131 177.075 154.099 177.049 154.076C177.024 154.052 176.991 154.04 176.956 154.04H176.049C176.013 154.04 175.977 154.054 175.951 154.08C175.925 154.106 175.911 154.142 175.911 154.178V161.03C175.911 161.067 175.925 161.102 175.951 161.128C175.977 161.154 176.013 161.169 176.049 161.169H177.146C177.183 161.169 177.219 161.154 177.245 161.128C177.271 161.102 177.285 161.067 177.285 161.03V157.354C177.285 157.014 177.338 156.711 177.441 156.441C177.545 156.164 177.686 155.932 177.865 155.743C177.865 155.742 177.865 155.742 177.866 155.742C178.046 155.547 178.252 155.401 178.488 155.3C178.729 155.195 178.984 155.142 179.255 155.142C179.376 155.142 179.506 155.15 179.646 155.167C179.785 155.183 179.911 155.205 180.023 155.232C180.041 155.237 180.061 155.237 180.08 155.234C180.099 155.231 180.117 155.223 180.134 155.212C180.15 155.202 180.163 155.187 180.174 155.171C180.184 155.155 180.191 155.136 180.193 155.117L180.331 154.154C180.337 154.119 180.328 154.083 180.308 154.054C180.287 154.025 180.256 154.005 180.222 153.998C180.092 153.972 179.947 153.953 179.785 153.94C179.624 153.923 179.469 153.914 179.32 153.914ZM156.374 154.04C156.353 154.04 156.332 154.045 156.312 154.054C156.293 154.064 156.276 154.078 156.263 154.095C156.25 154.112 156.242 154.132 156.238 154.154C156.234 154.175 156.235 154.196 156.241 154.217L158.225 161.069C158.233 161.098 158.25 161.123 158.274 161.141C158.299 161.159 158.328 161.169 158.358 161.169H159.586C159.615 161.169 159.643 161.16 159.667 161.143C159.691 161.126 159.708 161.102 159.718 161.075L161.057 157.108C161.119 156.934 161.175 156.762 161.224 156.593C161.272 156.422 161.316 156.259 161.355 156.104L161.356 156.101C161.386 155.997 161.408 155.906 161.432 155.813C161.456 155.906 161.481 155.996 161.507 156.101C161.508 156.102 161.508 156.104 161.509 156.106C161.553 156.256 161.598 156.414 161.647 156.58C161.647 156.582 161.648 156.583 161.648 156.584C161.701 156.747 161.755 156.914 161.812 157.086L163.093 161.073C163.102 161.101 163.12 161.125 163.143 161.142C163.167 161.16 163.196 161.169 163.225 161.169H164.492C164.523 161.169 164.552 161.159 164.576 161.141C164.6 161.123 164.618 161.098 164.626 161.069L166.616 154.217C166.622 154.197 166.623 154.175 166.619 154.154C166.615 154.133 166.607 154.113 166.594 154.095C166.581 154.078 166.564 154.064 166.545 154.054C166.525 154.045 166.504 154.04 166.483 154.04H165.373C165.342 154.04 165.313 154.05 165.289 154.068C165.264 154.087 165.247 154.112 165.239 154.142L164.188 157.924C164.118 158.182 164.05 158.438 163.984 158.688C163.984 158.689 163.983 158.69 163.983 158.69C163.924 158.933 163.871 159.154 163.824 159.358C163.771 159.154 163.713 158.945 163.647 158.729V158.727C163.585 158.51 163.521 158.3 163.455 158.099L162.175 154.136C162.166 154.108 162.148 154.084 162.124 154.066C162.1 154.049 162.072 154.04 162.043 154.04H160.867C160.838 154.04 160.809 154.049 160.786 154.066C160.762 154.083 160.744 154.107 160.735 154.135L159.409 158.104C159.36 158.252 159.311 158.41 159.262 158.578C159.214 158.742 159.168 158.908 159.124 159.076C159.123 159.077 159.123 159.077 159.123 159.078C159.096 159.191 159.071 159.294 159.046 159.399C159.043 159.385 159.042 159.376 159.039 159.362C158.994 159.143 158.94 158.913 158.874 158.671L158.873 158.668C158.812 158.422 158.746 158.174 158.676 157.924L157.638 154.142C157.63 154.113 157.613 154.087 157.589 154.068C157.564 154.05 157.535 154.04 157.504 154.04H156.374ZM152.144 154.914C152.536 154.914 152.843 154.997 153.078 155.154C153.079 155.154 153.079 155.154 153.079 155.155C153.318 155.31 153.494 155.526 153.611 155.816C153.612 155.816 153.612 155.817 153.612 155.818C153.719 156.07 153.774 156.368 153.791 156.7H150.308C150.388 156.155 150.561 155.72 150.852 155.415C151.171 155.081 151.59 154.914 152.144 154.914ZM170.93 154.939C171.418 154.939 171.802 155.043 172.093 155.241C172.388 155.441 172.606 155.723 172.75 156.101C172.896 156.477 172.971 156.931 172.971 157.464C172.971 158.001 172.896 158.461 172.75 158.846C172.605 159.228 172.386 159.513 172.086 159.718C171.794 159.92 171.415 160.025 170.936 160.025C170.453 160.025 170.072 159.92 169.78 159.718C169.485 159.514 169.267 159.228 169.122 158.846C168.976 158.461 168.901 158.001 168.901 157.464C168.901 156.65 169.07 156.029 169.392 155.59C169.393 155.59 169.393 155.589 169.393 155.589C169.715 155.157 170.21 154.939 170.93 154.939ZM133.179 157.671V158.157C133.179 158.805 132.99 159.261 132.618 159.57C132.238 159.884 131.752 160.044 131.137 160.044C130.746 160.044 130.449 159.956 130.229 159.791C130.016 159.631 129.91 159.395 129.91 159.033C129.91 158.62 130.064 158.328 130.4 158.104C130.726 157.886 131.34 157.742 132.226 157.709L133.179 157.671Z" fill="#212121"/>
<defs>
<filter id="filter0_d_605_5472" x="0" y="0" width="260" height="260" filterUnits="userSpaceOnUse" color-interpolation-filters="sRGB">
<feFlood flood-opacity="0" result="BackgroundImageFix"/>
<feColorMatrix in="SourceAlpha" type="matrix" values="0 0 0 0 0 0 0 0 0 0 0 0 0 0 0 0 0 0 127 0" result="hardAlpha"/>
<feOffset dy="4"/>
<feGaussianBlur stdDeviation="20"/>
<feComposite in2="hardAlpha" operator="out"/>
<feColorMatrix type="matrix" values="0 0 0 0 0.0367917 0 0 0 0 0.0348958 0 0 0 0 0.0484375 0 0 0 0.1 0"/>
<feBlend mode="normal" in2="BackgroundImageFix" result="effect1_dropShadow_605_5472"/>
<feBlend mode="normal" in="SourceGraphic" in2="effect1_dropShadow_605_5472" result="shape"/>
</filter>
</defs>
</svg>
