<svg width="260" height="260" viewBox="0 0 260 260" fill="none" xmlns="http://www.w3.org/2000/svg">
<g filter="url(#filter0_d_605_5452)">
<rect x="40" y="36" width="180" height="180" rx="32" fill="white"/>
<rect x="40.5" y="36.5" width="179" height="179" rx="31.5" stroke="white"/>
</g>
<mask id="mask0_605_5452" style="mask-type:luminance" maskUnits="userSpaceOnUse" x="83" y="99" width="94" height="54">
<path d="M177 99H83V153H177V99Z" fill="white"/>
</mask>
<g mask="url(#mask0_605_5452)">
<path d="M177 151.6C173.581 152.461 171.466 151.638 169.569 148.817L156.073 130.329L154.123 127.77L138.363 148.878C136.562 151.418 134.674 152.522 131.313 151.624L151.494 124.8L132.705 100.57C135.936 99.9482 138.169 100.264 140.152 103.13L154.149 121.848L168.249 103.232C170.055 100.692 171.997 99.7276 175.24 100.663L167.955 110.227L158.086 122.952C156.91 124.406 157.072 125.402 158.153 126.806L177 151.6ZM83.024 124.352L84.6744 116.312C89.1688 100.401 107.587 93.7898 120.289 103.621C127.712 109.403 129.557 117.582 129.19 126.745H87.3478C86.7196 143.237 98.7074 153.19 113.99 148.112C119.351 146.329 122.509 142.172 124.09 136.972C124.892 134.366 126.219 133.959 128.693 134.704C127.43 141.208 124.58 146.641 118.558 150.041C109.561 155.131 96.7172 153.485 89.9619 146.411C85.937 142.306 84.2746 137.106 83.5288 131.545C83.411 130.625 83.1762 129.75 83 128.869C83.0155 127.364 83.024 125.86 83.024 124.355V124.352ZM87.4239 123.247H125.235C124.988 111.321 117.489 102.851 107.24 102.779C95.9897 102.692 87.9118 110.96 87.4239 123.247Z" fill="black"/>
</g>
<defs>
<filter id="filter0_d_605_5452" x="0" y="0" width="260" height="260" filterUnits="userSpaceOnUse" color-interpolation-filters="sRGB">
<feFlood flood-opacity="0" result="BackgroundImageFix"/>
<feColorMatrix in="SourceAlpha" type="matrix" values="0 0 0 0 0 0 0 0 0 0 0 0 0 0 0 0 0 0 127 0" result="hardAlpha"/>
<feOffset dy="4"/>
<feGaussianBlur stdDeviation="20"/>
<feComposite in2="hardAlpha" operator="out"/>
<feColorMatrix type="matrix" values="0 0 0 0 0.0367917 0 0 0 0 0.0348958 0 0 0 0 0.0484375 0 0 0 0.1 0"/>
<feBlend mode="normal" in2="BackgroundImageFix" result="effect1_dropShadow_605_5452"/>
<feBlend mode="normal" in="SourceGraphic" in2="effect1_dropShadow_605_5452" result="shape"/>
</filter>
</defs>
</svg>
