<svg width="150" height="54" viewBox="0 0 94 54" xmlns="http://www.w3.org/2000/svg">
<path d="M94 52.6C90.581 53.461 88.466 52.638 86.569 49.817L73.073 31.329L71.123 28.77L55.363 49.878C53.562 52.418 51.674 53.522 48.313 52.624L68.494 25.8L49.705 1.57001C52.936 0.948207 55.169 1.264 57.152 4.13L71.149 22.848L85.249 4.23201C87.055 1.69201 88.997 0.72761 92.24 1.66301L84.955 11.227L75.086 23.952C73.91 25.406 74.072 26.402 75.153 27.806L94 52.6ZM0.0240021 25.352L1.6744 17.312C6.1688 1.401 24.587 -5.21019 37.289 4.62101C44.712 10.403 46.557 18.582 46.19 27.745H4.3478C3.7196 44.237 15.7074 54.19 30.99 49.112C36.351 47.329 39.509 43.172 41.09 37.972C41.892 35.366 43.219 34.959 45.693 35.704C44.43 42.208 41.58 47.641 35.558 51.041C26.561 56.131 13.7172 54.485 6.9619 47.411C2.937 43.306 1.2746 38.106 0.528801 32.545C0.411001 31.625 0.1762 30.75 0 29.869C0.0155 28.364 0.0240021 26.86 0.0240021 25.355V25.352ZM4.4239 24.247H42.235C41.988 12.321 34.489 3.85101 24.24 3.77901C12.9897 3.69201 4.9118 11.96 4.4239 24.247Z" fill="black"/>
</svg>
